<?xml version="1.0" encoding="UTF-8" standalone="no"?>
<svg width="63px" height="55px" viewBox="0 0 63 55" version="1.1" xmlns="http://www.w3.org/2000/svg" xmlns:xlink="http://www.w3.org/1999/xlink" xmlns:sketch="http://www.bohemiancoding.com/sketch/ns">
    <!-- Generator: Sketch Beta 3.3 (11556) - http://www.bohemiancoding.com/sketch -->
    <title>Fill 70 + Group 156</title>
    <desc>Created with Sketch Beta.</desc>
    <defs>
        <path id="path-1" d="M0,55 L36.5714286,55 L36.5714286,0 L0,0 L0,55 L0,55 Z"></path>
    </defs>
    <g id="Page-1" stroke="none" stroke-width="1" fill="none" fill-rule="evenodd" sketch:type="MSPage">
        <g id="Portrait---7" sketch:type="MSArtboardGroup" transform="translate(-18.000000, -167.000000)">
            <g id="header" sketch:type="MSLayerGroup" transform="translate(-2702.000000, 124.000000)">
                <g id="Hamburger-+-Group-156" transform="translate(2696.000000, 35.000000)">
                    <g id="Hamburger">
                        <g id="Fill-70-+-Group-156" transform="translate(24.000000, 8.000000)">
                            <path d="M61.2095607,26.5178571 L3.38752182,26.5178571 C2.54605899,26.5178571 1.86588921,26.9578571 1.86588921,27.5 C1.86588921,28.043125 2.54605899,28.4821429 3.38752182,28.4821429 L61.2095607,28.4821429 C62.0510236,28.4821429 62.7311933,28.043125 62.7311933,27.5 C62.7311933,26.9578571 62.0510236,26.5178571 61.2095607,26.5178571 L61.2095607,26.5178571 Z" id="Fill-70" fill="#FFFFFF" sketch:type="MSShapeGroup"></path>
                            <g id="Group-156">
                                <mask id="mask-2" sketch:name="Clip 155" fill="white">
                                    <use xlink:href="#path-1"></use>
                                </mask>
                                <g id="Clip-155"></g>
                                <path d="M36.2066286,53.3372321 L3.11993469,27.5 L36.2066286,1.66375 L36.2027102,1.66178571 C36.4286694,1.485 36.5710367,1.24732143 36.5710367,0.982142857 C36.5710367,0.44 35.9872,0 35.2649143,0 C34.8952816,0 34.5648327,0.117857143 34.3284245,0.303482143 L34.3245061,0.301517857 L0.365322449,26.819375 L0.369240816,26.8213393 C0.143281633,26.998125 -0.000391836735,27.2358036 -0.000391836735,27.5 C-0.000391836735,27.7651786 0.143281633,28.0028571 0.369240816,28.1796429 L0.365322449,28.1816071 L34.3245061,54.6994643 L34.3284245,54.6975 C34.5648327,54.883125 34.8952816,55 35.2649143,55 C35.9872,55 36.5710367,54.5609821 36.5710367,54.0178571 C36.5710367,53.7536607 36.4286694,53.5159821 36.2027102,53.3391964 L36.2066286,53.3372321 Z" id="Fill-154" fill="#FFFFFF" sketch:type="MSShapeGroup" mask="url(#mask-2)"></path>
                            </g>
                        </g>
                    </g>
                </g>
            </g>
        </g>
    </g>
</svg>