<?xml version="1.0" encoding="UTF-8" standalone="no"?>
<svg width="64px" height="55px" viewBox="0 0 64 55" version="1.1" xmlns="http://www.w3.org/2000/svg" xmlns:xlink="http://www.w3.org/1999/xlink" xmlns:sketch="http://www.bohemiancoding.com/sketch/ns">
    <!-- Generator: Sketch Beta 3.3 (11556) - http://www.bohemiancoding.com/sketch -->
    <title>Fill 70</title>
    <desc>Created with Sketch Beta.</desc>
    <defs></defs>
    <g id="Page-1" stroke="none" stroke-width="1" fill="none" fill-rule="evenodd" sketch:type="MSPage">
        <g id="Portrait---6" sketch:type="MSArtboardGroup" transform="translate(-20.000000, -169.000000)" fill="#FFFFFF">
            <g id="header" sketch:type="MSLayerGroup" transform="translate(-5.000000, 127.000000)">
                <g id="Hamburger" transform="translate(0.000000, 34.000000)" sketch:type="MSShapeGroup">
                    <path d="M87.4107143,59.4545455 L27.0178571,59.4545455 C26.1389821,59.4545455 25.4285714,60.1672727 25.4285714,61.0454545 C25.4285714,61.9252273 26.1389821,62.6363636 27.0178571,62.6363636 L87.4107143,62.6363636 C88.2895893,62.6363636 89,61.9252273 89,61.0454545 C89,60.1672727 88.2895893,59.4545455 87.4107143,59.4545455 L87.4107143,59.4545455 Z M87.4107143,34 L27.0178571,34 C26.1389821,34 25.4285714,34.7127273 25.4285714,35.5909091 C25.4285714,36.4706818 26.1389821,37.1818182 27.0178571,37.1818182 L87.4107143,37.1818182 C88.2895893,37.1818182 89,36.4706818 89,35.5909091 C89,34.7127273 88.2895893,34 87.4107143,34 L87.4107143,34 Z M27.0178571,11.7272727 L87.4107143,11.7272727 C88.2895893,11.7272727 89,11.0161364 89,10.1363636 C89,9.25818182 88.2895893,8.54545455 87.4107143,8.54545455 L27.0178571,8.54545455 C26.1389821,8.54545455 25.4285714,9.25818182 25.4285714,10.1363636 C25.4285714,11.0161364 26.1389821,11.7272727 27.0178571,11.7272727 L27.0178571,11.7272727 Z" id="Fill-70"></path>
                </g>
            </g>
        </g>
    </g>
</svg>