<?xml version="1.0" encoding="UTF-8" standalone="no"?>
<svg width="20px" height="16px" viewBox="0 0 20 16" version="1.1" xmlns="http://www.w3.org/2000/svg" xmlns:xlink="http://www.w3.org/1999/xlink" xmlns:sketch="http://www.bohemiancoding.com/sketch/ns">
    <!-- Generator: Sketch Beta 3.3 (11556) - http://www.bohemiancoding.com/sketch -->
    <title>ic_email_24px</title>
    <desc>Created with Sketch Beta.</desc>
    <defs></defs>
    <g id="Page-1" stroke="none" stroke-width="1" fill="none" fill-rule="evenodd" sketch:type="MSPage">
        <g id="ic_email_24px" sketch:type="MSLayerGroup" transform="translate(-2.000000, -4.000000)">
            <path d="M20,4 L4,4 C2.9,4 2.01,4.9 2.01,6 L2,18 C2,19.1 2.9,20 4,20 L20,20 C21.1,20 22,19.1 22,18 L22,6 C22,4.9 21.1,4 20,4 L20,4 Z M20,8 L12,13 L4,8 L4,6 L12,11 L20,6 L20,8 L20,8 Z" id="Shape" fill="#189BCE" sketch:type="MSShapeGroup"></path>
            <path d="M0,0 L24,0 L24,24 L0,24 L0,0 Z" id="Shape" sketch:type="MSShapeGroup"></path>
        </g>
    </g>
</svg>